<?xml version="1.0" standalone="no"?>
<!DOCTYPE svg PUBLIC "-//W3C//DTD SVG 20010904//EN"
 "http://www.w3.org/TR/2001/REC-SVG-20010904/DTD/svg10.dtd">
<svg version="1.0" xmlns="http://www.w3.org/2000/svg"
 width="800.000000pt" height="800.000000pt" viewBox="0 0 800.000000 800.000000"
 preserveAspectRatio="xMidYMid meet">
<metadata>
Created by potrace 1.14, written by Peter Selinger 2001-2017
</metadata>
<g transform="translate(0.000000,800.000000) scale(0.100000,-0.100000)"
fill="#000000" stroke="none">
<path d="M3750 6711 c0 -5 10 -12 23 -14 13 -3 7 -5 -16 -6 -22 0 -53 -7 -70
-15 -33 -15 -131 -27 -204 -26 -24 0 -43 -4 -43 -10 0 -5 -5 -10 -11 -10 -6 0
-30 -13 -54 -30 -24 -16 -48 -30 -53 -30 -15 0 -111 -49 -131 -67 -9 -8 -27
-23 -41 -34 -24 -20 -24 -20 -2 -16 37 8 25 -14 -18 -30 -45 -18 -45 -35 0
-26 19 3 30 1 30 -6 0 -6 -5 -11 -10 -11 -6 0 -14 -8 -17 -17 -4 -10 -11 -22
-15 -28 -5 -5 -18 -22 -29 -38 -11 -15 -36 -35 -55 -45 -38 -20 -154 -145
-154 -167 0 -21 9 -19 34 8 24 26 62 45 49 24 -4 -6 -17 -20 -30 -30 -21 -17
-53 -66 -53 -82 0 -3 8 -5 18 -5 16 -1 16 -1 0 -11 -21 -12 -24 -29 -4 -29 17
0 27 -58 12 -73 -30 -33 -66 -87 -57 -87 14 0 14 -37 1 -42 -5 -1 -19 -27 -29
-56 -16 -42 -17 -59 -9 -83 9 -26 7 -34 -13 -55 -22 -24 -22 -24 -1 -24 11 0
23 -8 26 -17 13 -50 17 -85 9 -96 -18 -25 -33 -67 -23 -67 6 0 22 24 36 53 50
103 107 183 240 332 120 136 149 160 213 180 31 9 101 38 156 65 55 26 116 54
135 63 37 16 109 25 125 15 6 -4 35 5 65 19 30 15 64 28 75 30 33 6 127 6 175
0 59 -8 283 -19 435 -21 116 -2 122 -3 190 -37 39 -20 76 -34 82 -32 7 3 36
-12 65 -31 29 -20 61 -36 71 -36 20 0 101 -71 120 -106 6 -12 27 -48 46 -79
18 -31 46 -100 62 -152 16 -52 37 -114 48 -137 18 -38 37 -111 33 -128 -1 -5
2 -8 8 -8 15 0 24 -70 10 -83 -10 -9 -11 -7 -6 13 3 14 3 19 0 12 -3 -6 -10
-10 -15 -6 -5 3 -4 -6 3 -20 9 -22 8 -29 -7 -47 -15 -16 -17 -24 -8 -38 7 -10
9 -28 7 -39 -3 -11 1 -33 10 -50 18 -34 21 -56 7 -48 -5 4 -7 -3 -4 -15 5 -16
8 -18 15 -7 6 8 8 -1 6 -29 -2 -23 1 -39 6 -36 5 3 6 -13 2 -38 -11 -80 -9
-188 4 -204 16 -19 15 -136 -1 -166 -15 -28 6 -100 27 -92 10 4 14 -4 14 -25
0 -16 6 -32 14 -35 19 -7 26 1 26 30 0 13 4 22 9 19 5 -4 12 0 14 6 4 9 6 8 6
-2 1 -8 8 -3 16 13 8 15 12 34 9 42 -4 10 0 12 15 8 12 -3 24 -9 27 -14 3 -5
13 -5 22 0 42 20 110 50 138 61 56 21 71 42 70 99 -1 35 3 51 11 51 16 0 14
-11 19 104 2 55 9 116 14 135 5 20 10 60 10 89 0 29 4 60 9 70 19 38 42 175
43 262 0 14 -4 43 -10 65 -6 22 -13 64 -15 93 -3 29 -10 58 -15 65 -6 7 -10
22 -10 32 3 29 -48 110 -77 123 -26 12 -36 38 -10 29 8 -4 17 -2 20 3 4 6 -1
10 -10 10 -10 0 -15 5 -12 14 3 7 -4 19 -16 25 -20 11 -25 24 -30 84 -1 9 -7
17 -14 17 -7 0 -13 9 -13 21 0 15 -4 19 -16 15 -13 -5 -14 -1 -9 26 6 25 4 30
-8 25 -12 -4 -17 3 -22 31 -8 48 -25 77 -25 44 0 -12 -7 -25 -15 -28 -21 -8
-64 22 -78 54 -14 31 -48 72 -59 72 -5 0 -6 -11 -2 -25 8 -32 3 -31 -36 5 -18
16 -28 34 -25 41 5 8 1 9 -14 4 -15 -5 -35 3 -69 27 -67 47 -82 56 -132 80
-24 11 -65 34 -91 49 -25 16 -52 29 -60 29 -7 0 -30 12 -52 27 -22 16 -59 29
-90 34 -29 3 -72 16 -97 27 -63 28 -84 35 -93 33 -14 -3 -48 20 -42 29 3 5 -8
7 -25 5 -21 -2 -33 1 -37 11 -4 12 -8 13 -14 3 -5 -10 -21 -7 -67 9 -32 12
-68 22 -79 22 -11 0 -38 7 -59 16 -22 9 -52 20 -69 24 -16 4 -38 11 -48 15
-13 6 -16 3 -11 -9 9 -24 -35 -21 -98 8 -54 24 -90 36 -164 55 -51 13 -64 14
-64 2z m1622 -666 c-12 -22 -27 -2 -18 22 5 12 10 13 17 6 7 -7 8 -17 1 -28z
m-2358 -55 c-37 -24 -106 -40 -88 -21 13 14 81 40 104 40 8 1 1 -8 -16 -19z"/>
<path d="M4060 6696 c0 -2 7 -7 16 -10 8 -3 12 -2 9 4 -6 10 -25 14 -25 6z"/>
<path d="M2755 4867 c-34 -34 -36 -39 -31 -89 6 -70 15 -98 32 -98 7 0 11 -6
8 -14 -9 -24 33 -26 56 -1 18 19 31 22 80 21 32 0 56 2 53 7 -2 4 5 7 17 7 18
0 19 -3 10 -20 -6 -11 -15 -18 -19 -16 -12 8 -161 -60 -176 -80 -17 -22 -19
-61 -4 -66 7 -2 7 -12 0 -31 -14 -36 3 -74 36 -80 18 -3 27 1 35 18 10 22 12
22 44 9 29 -12 33 -12 28 1 -4 8 -10 15 -14 15 -23 0 -15 32 16 64 38 39 93
52 79 19 -12 -28 -6 -74 13 -108 17 -28 23 -30 88 -35 46 -4 63 -8 52 -14 -10
-4 -15 -12 -12 -17 5 -9 -10 -13 -30 -10 -5 1 -4 -5 3 -13 11 -13 9 -16 -13
-22 -25 -6 -25 -7 -9 -20 17 -13 17 -13 -1 -14 -40 0 -2 -15 42 -16 33 -1 50
-7 63 -23 16 -19 19 -20 48 -5 41 21 76 67 111 151 48 111 39 159 -41 236 -27
26 -53 47 -58 47 -5 0 -11 7 -15 15 -3 8 -12 15 -20 15 -16 0 -76 81 -80 108
-5 30 -155 75 -211 62 -23 -5 -37 -3 -47 6 -7 7 -32 16 -55 20 -39 6 -45 4
-78 -29z m393 -381 c6 -27 -11 -38 -33 -22 -17 12 -17 16 -6 30 17 20 35 16
39 -8z m110 -41 c1 -35 -10 -43 -37 -26 -9 6 -10 11 -2 15 6 4 11 16 11 27 0
36 27 21 28 -16z"/>
<path d="M3116 4493 c-11 -11 -6 -23 9 -23 8 0 15 4 15 9 0 13 -16 22 -24 14z"/>
<path d="M3792 4820 c-7 -11 -12 -39 -11 -62 0 -33 2 -38 9 -23 5 11 9 16 9
10 1 -5 5 -3 11 5 7 11 11 9 19 -12 7 -19 19 -27 48 -33 l38 -8 -45 -15 c-25
-8 -47 -18 -50 -22 -3 -4 -15 -12 -27 -19 -13 -6 -23 -21 -23 -32 0 -13 -4
-18 -12 -13 -7 4 5 -9 27 -29 26 -25 39 -46 40 -64 0 -20 6 -27 24 -30 34 -5
37 -10 17 -32 -19 -21 -14 -41 10 -41 8 0 14 -6 14 -14 0 -8 6 -17 13 -20 10
-5 10 -7 0 -12 -7 -3 -13 -13 -14 -22 0 -15 -1 -15 -7 0 -5 13 -11 15 -22 8
-13 -9 -13 -11 0 -20 13 -9 13 -10 0 -10 -13 0 -13 -2 -1 -9 8 -5 21 -7 29 -3
11 4 14 1 9 -11 -5 -15 -3 -16 12 -7 14 7 21 6 24 -3 4 -9 8 -8 16 3 8 11 13
12 19 4 10 -16 92 -29 92 -15 0 6 -4 11 -9 11 -5 0 -11 8 -15 18 -3 9 -9 23
-12 30 -4 8 4 12 25 12 17 0 31 4 31 9 0 4 -11 6 -25 3 -21 -4 -25 -1 -25 21
0 16 -8 31 -20 37 -11 6 -20 8 -20 5 0 -3 -8 -2 -17 4 -12 6 -20 5 -29 -7 -10
-14 -14 -14 -28 -3 -20 16 -4 51 23 51 10 0 26 10 37 21 21 25 90 58 117 59
13 0 18 -7 17 -22 -7 -80 29 -139 85 -140 58 -1 116 21 133 53 23 40 57 39 66
-1 6 -31 36 -43 36 -14 0 9 9 18 19 21 13 3 18 10 14 20 -4 9 1 21 10 28 15
11 16 14 2 25 -8 7 -15 20 -15 29 0 18 -116 77 -207 107 -29 9 -50 21 -47 26
4 5 -7 7 -28 3 -22 -4 -39 -1 -53 9 -19 14 -15 15 50 16 68 0 98 8 96 26 -1 5
3 9 8 9 19 0 23 14 8 35 -9 14 -16 17 -19 9 -3 -9 -13 -9 -43 1 -22 8 -51 13
-63 12 -13 -1 -60 7 -105 19 -44 11 -91 18 -104 14 -13 -3 -23 -2 -23 2 0 5
-28 9 -63 10 -53 1 -65 -1 -75 -17z m403 -230 c-3 -5 -10 -10 -16 -10 -5 0 -9
5 -9 10 0 6 7 10 16 10 8 0 12 -4 9 -10z m109 -15 c39 -17 50 -41 14 -30 -59
17 -94 30 -102 37 -17 14 50 9 88 -7z m-64 -81 c18 -21 -13 -55 -32 -36 -9 9
-7 12 10 12 12 0 22 5 22 11 0 6 -9 9 -20 6 -20 -5 -26 3 -13 16 10 11 19 8
33 -9z"/>
<path d="M4214 4798 c10 -6 22 -6 26 -2 5 5 -3 10 -18 11 -22 1 -24 0 -8 -9z"/>
<path d="M3732 4788 c2 -5 8 -9 13 -9 5 0 11 4 13 9 1 5 -4 9 -13 9 -9 0 -14
-4 -13 -9z"/>
<path d="M5212 4685 c0 -16 2 -22 5 -12 2 9 2 23 0 30 -3 6 -5 -1 -5 -18z"/>
<path d="M5685 4460 c3 -5 8 -10 11 -10 2 0 4 5 4 10 0 6 -5 10 -11 10 -5 0
-7 -4 -4 -10z"/>
<path d="M5600 4451 c0 -17 12 -41 20 -41 4 0 10 11 12 25 4 19 1 25 -13 25
-11 0 -19 -4 -19 -9z"/>
<path d="M2921 4370 c-9 -5 -7 -9 8 -13 12 -3 23 -2 26 3 7 11 -19 20 -34 10z"/>
<path d="M2999 4342 c7 -13 17 -19 26 -16 16 7 21 24 6 24 -5 0 -17 3 -26 7
-15 5 -16 3 -6 -15z"/>
<path d="M3040 4289 c0 -5 5 -7 10 -4 6 3 10 8 10 11 0 2 -4 4 -10 4 -5 0 -10
-5 -10 -11z"/>
<path d="M5436 4225 c-6 -17 2 -45 14 -45 4 0 10 7 14 15 6 17 -2 45 -14 45
-4 0 -10 -7 -14 -15z"/>
<path d="M5280 3875 c-16 -9 -19 -14 -9 -15 8 0 24 7 35 15 24 18 7 19 -26 0z"/>
<path d="M3151 3741 c-11 -7 -10 -14 8 -39 11 -17 21 -42 21 -57 0 -30 -49
-85 -75 -85 -24 0 -82 -61 -91 -95 -5 -20 -3 -31 8 -39 9 -7 23 -28 31 -49 9
-20 21 -37 26 -37 6 0 18 -14 26 -30 9 -17 20 -28 25 -25 6 4 10 2 10 -4 0
-15 107 -62 125 -55 9 4 15 0 15 -9 0 -16 26 -30 40 -22 4 3 11 -2 14 -11 3
-8 10 -13 15 -9 5 3 12 1 16 -4 3 -6 12 -8 20 -4 17 6 21 43 4 43 -5 0 -7 -6
-3 -12 5 -9 2 -9 -9 1 -9 7 -17 10 -17 5 0 -4 -9 2 -20 14 -24 25 -26 36 -5
29 8 -4 17 -2 20 4 4 5 10 7 14 5 4 -3 36 -6 69 -7 49 -2 62 -5 63 -18 0 -10
2 -12 6 -3 2 6 13 12 24 12 10 0 19 4 19 9 0 6 76 9 183 8 152 -2 195 1 260
18 68 17 79 17 87 5 6 -10 12 -12 19 -5 14 14 -24 91 -48 98 -9 2 -22 21 -29
43 -8 30 -17 40 -32 40 -14 0 -19 -5 -15 -16 3 -10 1 -9 -9 3 -9 12 -16 14
-21 7 -4 -6 -15 -8 -24 -5 -19 6 -20 -7 -7 -57 9 -32 39 -41 87 -28 41 12 39
12 39 -1 0 -35 -65 -47 -274 -49 -21 0 -27 -4 -22 -15 3 -9 0 -15 -9 -15 -8 0
-15 7 -15 16 0 13 -3 14 -14 5 -10 -9 -16 -9 -21 -1 -6 10 -22 8 -62 -7 -7 -3
-13 1 -13 9 0 10 -12 15 -35 16 -22 1 -35 -3 -35 -11 0 -9 -2 -9 -8 0 -4 6
-34 13 -67 16 -54 5 -81 12 -160 43 -22 8 -46 13 -87 15 -16 1 -28 6 -28 11 0
5 -6 6 -12 1 -7 -4 -23 -9 -35 -11 -19 -2 -22 2 -21 22 2 21 6 24 24 20 12 -3
25 -1 28 5 4 5 13 8 20 5 7 -3 16 2 20 12 6 16 8 16 25 0 16 -15 25 -16 63 -6
23 7 48 15 53 18 6 4 14 7 19 7 5 0 14 8 20 17 8 13 6 29 -7 64 -18 48 -16 67
7 58 14 -5 56 44 56 65 0 12 -70 -17 -82 -34 -5 -6 -8 -5 -8 3 0 7 -13 12 -32
12 -23 0 -40 10 -68 39 -54 56 -81 69 -109 52z"/>
<path d="M3510 3711 c-13 -9 -12 -12 5 -25 16 -12 39 -14 115 -9 52 3 97 7 99
9 2 2 -9 9 -25 15 -38 16 -175 23 -194 10z"/>
<path d="M3443 3522 c-26 -31 -31 -82 -8 -82 8 0 15 -5 15 -11 0 -7 27 -9 78
-7 62 2 80 7 94 23 17 19 17 19 18 -17 l0 -37 61 4 c34 3 69 10 78 17 9 7 13
8 9 4 -10 -12 29 -39 42 -31 14 8 13 48 -1 62 -9 9 -15 8 -26 -2 -19 -20 -42
-9 -35 17 4 17 2 20 -11 15 -9 -3 -18 -1 -21 6 -3 9 -5 9 -5 0 -1 -9 -8 -10
-27 -3 -33 13 -34 13 -34 -5 0 -13 -4 -12 -22 5 -12 11 -25 20 -29 20 -4 0
-10 10 -12 23 -2 12 -3 7 -1 -11 3 -28 1 -32 -11 -22 -13 10 -15 8 -15 -14 0
-36 -18 -33 -29 7 -8 29 -9 29 -10 7 -2 -24 -2 -24 -16 7 -11 25 -41 54 -57
53 -2 0 -13 -13 -25 -28z"/>
<path d="M5166 3534 c-9 -22 -8 -24 9 -18 8 4 15 1 15 -6 0 -9 7 -7 20 5 28
25 25 35 -9 35 -17 0 -31 -6 -35 -16z"/>
<path d="M3863 3419 c-10 -25 -9 -34 1 -45 12 -11 15 -10 20 9 8 31 7 67 -2
67 -4 0 -13 -14 -19 -31z"/>
<path d="M3400 3081 c0 -5 10 -31 22 -58 12 -26 21 -51 20 -55 -1 -3 6 -12 15
-20 15 -11 16 -11 10 4 -3 10 -2 20 3 23 6 4 10 -7 10 -24 0 -38 22 -60 53
-54 23 4 25 11 31 80 8 86 5 91 -58 92 -50 1 -73 5 -82 14 -10 10 -24 9 -24
-2z"/>
<path d="M3582 3040 c0 -14 2 -19 5 -12 2 6 2 18 0 25 -3 6 -5 1 -5 -13z"/>
<path d="M4850 3019 c0 -5 5 -7 10 -4 6 3 10 8 10 11 0 2 -4 4 -10 4 -5 0 -10
-5 -10 -11z"/>
<path d="M4786 3001 c-9 -9 -16 -23 -16 -30 0 -8 -6 -11 -15 -7 -8 3 -15 1
-15 -5 0 -6 -7 -9 -15 -6 -12 5 -12 2 -3 -18 9 -20 13 -22 29 -12 11 7 19 18
19 25 0 7 7 12 17 10 10 -2 19 6 24 24 9 34 -3 44 -25 19z"/>
<path d="M4698 2922 c-10 -2 -18 -8 -18 -13 0 -10 -28 -8 -47 4 -8 5 -11 1
-10 -13 1 -11 4 -20 8 -20 4 0 5 -9 2 -20 -7 -25 -2 -25 28 1 13 12 32 27 43
34 22 16 18 32 -6 27z"/>
<path d="M4597 2873 c-4 -3 -7 -15 -7 -25 0 -21 0 -21 -36 -8 -23 9 -25 9 -15
-4 16 -19 4 -39 -19 -33 -12 3 -20 -2 -23 -14 -3 -13 -11 -17 -21 -13 -11 4
-16 1 -16 -11 0 -12 -5 -15 -20 -10 -14 5 -20 2 -20 -9 0 -9 -4 -16 -9 -16 -6
0 -22 -11 -37 -25 -15 -14 -45 -28 -66 -31 -21 -4 -41 -10 -44 -15 -2 -4 -12
-5 -21 -2 -12 5 -14 3 -8 -7 6 -10 0 -12 -24 -8 -20 3 -31 0 -31 -8 0 -21
-106 -39 -114 -19 -3 6 -5 2 -5 -8 -1 -10 -5 -16 -11 -12 -5 3 -7 12 -4 19 3
8 1 17 -5 21 -6 3 -11 1 -11 -5 0 -7 -6 -10 -14 -7 -10 4 -17 -3 -21 -23 -7
-30 -26 -43 -50 -34 -8 3 -20 2 -27 -2 -21 -13 -48 -12 -48 2 0 19 -30 6 -56
-22 -28 -31 -32 -30 -36 7 l-3 30 -23 -21 c-25 -23 -44 -19 -36 8 3 9 -2 5
-10 -10 -14 -24 -21 -26 -58 -22 -24 2 -78 6 -121 8 -42 2 -83 9 -90 15 -8 6
-17 8 -20 4 -4 -3 -7 -2 -7 3 0 5 -16 9 -35 8 -28 -2 -39 4 -56 28 -12 16 -27
27 -35 24 -7 -3 -16 -1 -19 4 -3 5 -11 7 -18 4 -14 -5 -67 48 -67 66 0 5 -5
10 -11 10 -5 0 -8 4 -5 8 6 11 -11 38 -20 30 -3 -4 7 -29 24 -56 17 -27 32
-60 34 -73 2 -13 9 -23 15 -22 7 2 15 -6 18 -17 8 -24 64 -72 76 -64 5 3 9 -2
9 -10 0 -9 3 -15 8 -15 38 6 79 -42 69 -82 -3 -11 -1 -17 3 -14 5 3 11 1 15
-5 3 -5 1 -10 -5 -10 -6 0 -9 -8 -6 -17 2 -10 7 -44 11 -75 3 -32 10 -58 15
-58 4 0 6 9 3 20 -4 16 -2 19 11 14 9 -3 16 -2 16 4 0 6 -5 12 -11 14 -9 3 -9
9 0 25 6 12 11 42 11 67 0 47 14 61 25 26 3 -11 11 -20 16 -20 5 0 9 -9 9 -21
0 -16 4 -19 18 -14 9 5 32 10 50 13 17 2 32 7 32 11 0 4 7 8 15 8 18 0 20 -13
3 -21 -7 -3 1 -3 17 0 57 11 160 22 166 18 4 -2 26 3 49 11 23 8 46 12 51 9 5
-3 9 0 9 6 0 6 4 9 9 5 5 -3 12 -1 16 4 3 6 12 8 20 4 8 -3 15 0 15 7 0 6 4 9
9 6 4 -3 25 3 46 14 21 11 41 18 43 15 2 -2 22 7 43 21 23 14 39 19 39 12 0
-6 6 -3 14 8 8 11 10 21 5 25 -5 3 -7 13 -3 23 5 14 9 15 16 4 8 -11 10 -11
15 0 6 15 51 37 83 41 6 0 10 7 10 14 0 6 12 20 28 29 15 10 34 22 42 27 8 6
31 17 51 26 20 9 42 26 49 39 7 13 24 30 39 37 14 8 32 21 38 30 7 9 24 20 38
23 14 4 25 13 25 20 0 8 3 21 6 30 6 16 -7 22 -19 9z m-1024 -500 c-7 -2 -19
-2 -25 0 -7 3 -2 5 12 5 14 0 19 -2 13 -5z m-138 -43 c3 -5 1 -10 -4 -10 -6 0
-11 5 -11 10 0 6 2 10 4 10 3 0 8 -4 11 -10z"/>
<path d="M5506 2319 c10 -12 48 -42 84 -67 87 -61 120 -92 120 -114 0 -9 -12
-24 -27 -32 -16 -8 -104 -94 -198 -192 -184 -192 -287 -281 -462 -396 -155
-103 -344 -173 -518 -193 -27 -3 -81 -10 -120 -16 -82 -11 -306 -18 -300 -9 2
3 -11 4 -29 2 -20 -2 -47 4 -72 17 -21 12 -57 21 -79 21 -22 1 -56 6 -75 13
-38 13 -126 14 -176 2 -28 -6 -36 -2 -76 36 -36 35 -50 60 -72 124 -14 44 -26
88 -26 98 0 10 -9 37 -20 59 -11 23 -20 47 -20 54 0 7 -4 14 -10 16 -5 2 -10
85 -10 206 -1 136 -5 202 -12 202 -10 0 -46 -36 -150 -149 -50 -55 -65 -63
-178 -93 -41 -10 -118 -40 -170 -64 -52 -25 -131 -62 -175 -82 -44 -20 -118
-61 -165 -92 -47 -31 -112 -71 -145 -90 -226 -126 -482 -358 -572 -518 -76
-134 -104 -272 -113 -572 -6 -208 -9 -234 -38 -340 -17 -63 -34 -123 -37 -133
-7 -16 148 -17 3164 -17 l3171 0 -2 317 -3 318 -67 40 c-37 22 -124 94 -194
160 -124 118 -254 232 -384 338 -119 98 -304 243 -360 283 -59 42 -75 54 -124
95 -34 28 -136 99 -286 200 -171 114 -348 264 -384 325 -10 18 -31 38 -45 45
-14 7 -34 19 -43 27 -32 26 -173 103 -218 118 -25 9 -88 17 -140 19 -68 2
-118 10 -175 29 -44 14 -82 26 -84 26 -2 0 4 -10 15 -21z"/>
<path d="M3458 2166 c-10 -7 -18 -24 -18 -37 l0 -24 27 28 c30 29 22 56 -9 33z"/>
<path d="M3491 2094 c0 -11 3 -14 6 -6 3 7 2 16 -1 19 -3 4 -6 -2 -5 -13z"/>
<path d="M3480 2051 c0 -5 7 -11 15 -15 8 -3 14 -11 13 -18 -2 -7 3 -12 11
-13 8 0 16 -9 17 -20 5 -35 10 -54 16 -61 4 -3 4 -13 1 -22 -3 -13 -1 -13 11
2 9 11 16 14 16 8 0 -23 28 -12 33 13 3 16 0 24 -7 22 -6 -2 -28 19 -49 47
-35 47 -77 78 -77 57z"/>
<path d="M3540 2053 c0 -11 38 -60 69 -90 24 -23 51 -31 51 -15 0 12 -34 42
-48 42 -7 0 -12 7 -12 15 0 8 -4 15 -8 15 -5 0 -18 9 -30 20 -12 12 -22 17
-22 13z"/>
</g>
</svg>
